<svg width="752" height="570" viewBox="0 0 752 570" fill="none" xmlns="http://www.w3.org/2000/svg">
<path d="M466.126 39.09V436.32L464.746 452.86C462.327 481.571 450.164 508.592 430.276 529.44C427.456 532.39 424.506 535.183 421.426 537.82C417.634 541.09 413.647 544.125 409.486 546.91C407.106 548.51 404.666 550.02 402.186 551.45C387.764 559.779 371.833 565.166 355.316 567.3H236.956C227.537 567.308 218.435 563.901 211.336 557.71C207.822 554.651 204.877 550.995 202.636 546.91C199.506 541.178 197.869 534.751 197.876 528.22V39.09C197.889 28.7267 202.012 18.7917 209.34 11.4638C216.668 4.13588 226.603 0.0132303 236.966 0H427.046C427.496 0 427.936 0.0100043 428.386 0.0200043C428.676 0.0300043 428.966 0.0400073 429.256 0.0700073C429.646 0.0800073 430.036 0.110009 430.416 0.150009C430.906 0.180009 431.386 0.230009 431.866 0.290009C432.306 0.350009 432.746 0.409996 433.186 0.479996C433.276 0.489996 433.356 0.510004 433.446 0.520004C434.006 0.610004 434.566 0.710002 435.116 0.830002C435.666 0.950002 436.226 1.07001 436.766 1.21001C437.156 1.31001 437.556 1.42 437.946 1.53C437.956 1.53 437.976 1.54001 437.986 1.54001C439.136 1.88001 440.276 2.27 441.396 2.72C441.746 2.85 442.096 3.00001 442.436 3.15001L442.586 3.21001C442.866 3.33001 443.136 3.45 443.406 3.58C444.216 3.95 445.016 4.36001 445.806 4.79001C447.105 5.50643 448.364 6.29431 449.576 7.15001C449.966 7.42001 450.346 7.71 450.716 8C451.026 8.23 451.336 8.47 451.636 8.73C451.662 8.74327 451.685 8.76011 451.706 8.78C451.746 8.81 451.786 8.85 451.826 8.88C452.096 9.09 452.356 9.31 452.606 9.53C453.096 9.95 453.576 10.39 454.046 10.84C454.176 10.96 454.306 11.08 454.436 11.21C454.566 11.34 454.686 11.46 454.816 11.59C454.946 11.72 455.066 11.84 455.186 11.96C455.258 12.0216 455.324 12.0884 455.386 12.16C455.746 12.54 456.096 12.93 456.436 13.32C456.866 13.81 457.286 14.31 457.676 14.82C458.016 15.24 458.336 15.66 458.646 16.09C458.936 16.48 459.206 16.87 459.476 17.27C459.548 17.3695 459.615 17.473 459.676 17.58C459.956 17.99 460.216 18.41 460.476 18.83C461.126 19.89 461.716 20.99 462.256 22.1C462.456 22.52 462.646 22.93 462.826 23.35C463.056 23.86 463.266 24.37 463.466 24.88C463.546 25.07 463.616 25.27 463.686 25.46C463.796 25.75 463.896 26.04 463.996 26.33C464.106 26.65 464.216 26.98 464.316 27.3L464.556 28.08C464.696 28.55 464.816 29.01 464.936 29.48C465.006 29.76 465.076 30.04 465.136 30.33C465.605 32.3722 465.91 34.449 466.046 36.54C466.056 36.8 466.076 37.05 466.086 37.31C466.116 37.9 466.126 38.49 466.126 39.09Z" fill="#3F3D56"/>
<path d="M466.126 39.09V203.91L441.306 230.87C440.186 229.69 439.083 228.493 437.996 227.28C436.446 225.58 434.933 223.853 433.456 222.1C433.066 221.65 432.696 221.21 432.316 220.76C431.326 219.6 430.366 218.42 429.406 217.23C420.719 206.482 412.974 195.007 406.256 182.93C405.416 181.42 404.596 179.91 403.786 178.38C396.49 164.563 390.558 150.068 386.076 135.1C385.566 133.41 385.076 131.7 384.616 129.99C380.911 116.604 378.372 102.923 377.026 89.1C376.836 87.15 376.666 85.21 376.526 83.26C376.526 83.21 376.516 83.15 376.516 83.1C376.356 80.98 376.246 78.86 376.146 76.72C374.933 50.845 377.877 24.9429 384.866 0H427.046C427.496 0 427.936 0.0100043 428.386 0.0200043C428.676 0.0300043 428.966 0.0400073 429.256 0.0700073C429.646 0.0800073 430.036 0.110009 430.416 0.150009C430.906 0.180009 431.386 0.230009 431.866 0.290009C432.306 0.350009 432.746 0.409996 433.186 0.479996C433.276 0.489996 433.356 0.510004 433.446 0.520004H433.456C434.016 0.610004 434.576 0.710002 435.126 0.830002C435.676 0.950002 436.236 1.07001 436.776 1.21001C437.166 1.31001 437.566 1.42 437.956 1.53C437.966 1.53 437.986 1.54001 437.996 1.54001C439.146 1.88001 440.276 2.27 441.396 2.72C441.746 2.85 442.096 3.00001 442.436 3.15001L442.586 3.21001C442.866 3.33001 443.136 3.45 443.406 3.58C444.216 3.95 445.016 4.36001 445.806 4.79001C447.105 5.50643 448.364 6.29431 449.576 7.15001C449.966 7.42001 450.346 7.71 450.716 8C451.026 8.23 451.336 8.47 451.636 8.73C451.662 8.74327 451.685 8.76011 451.706 8.78H451.716C451.896 8.93 452.076 9.08 452.246 9.23C452.366 9.33 452.496 9.43 452.606 9.53C452.776 9.67 452.936 9.82001 453.106 9.96001C453.186 10.03 453.266 10.1 453.336 10.17C453.576 10.39 453.806 10.61 454.046 10.84C454.176 10.96 454.306 11.08 454.436 11.21C454.566 11.34 454.686 11.46 454.816 11.59C454.946 11.72 455.066 11.84 455.186 11.96L455.196 11.97C455.269 12.0229 455.333 12.0871 455.386 12.16C455.746 12.54 456.096 12.93 456.436 13.32C456.866 13.81 457.286 14.31 457.676 14.82C458.016 15.24 458.336 15.66 458.646 16.09C458.936 16.48 459.206 16.87 459.476 17.27C459.548 17.3695 459.615 17.473 459.676 17.58C459.956 17.99 460.216 18.41 460.476 18.83C461.126 19.89 461.716 20.99 462.256 22.1C462.456 22.52 462.646 22.93 462.826 23.35C463.056 23.86 463.266 24.37 463.466 24.88C463.546 25.07 463.616 25.27 463.686 25.46C463.796 25.75 463.896 26.04 463.996 26.33C464.106 26.65 464.216 26.98 464.316 27.3L464.556 28.08C464.696 28.55 464.816 29.01 464.936 29.48C465.006 29.76 465.076 30.04 465.136 30.33C465.605 32.3722 465.91 34.449 466.046 36.54C466.056 36.8 466.076 37.05 466.086 37.31C466.116 37.9 466.126 38.49 466.126 39.09Z" fill="#23CE6B"/>
<path opacity="0.2" d="M466.136 89.1V84.54H437.996V13.32H456.446C456.106 12.93 455.756 12.54 455.396 12.16H455.386C455.333 12.087 455.269 12.0229 455.196 11.97V11.96H455.186C455.066 11.84 454.946 11.71 454.816 11.59C454.7 11.4561 454.577 11.3292 454.446 11.21H454.436C454.306 11.08 454.176 10.96 454.046 10.84C453.806 10.61 453.576 10.39 453.336 10.17C453.266 10.1 453.186 10.03 453.106 9.95999C452.936 9.81999 452.776 9.66998 452.606 9.52998C452.496 9.42998 452.366 9.32998 452.246 9.22998C452.076 9.07998 451.896 8.92998 451.716 8.77998H437.996V1.53999C437.986 1.53999 437.966 1.52998 437.956 1.52998C437.566 1.41998 437.166 1.30999 436.776 1.20999C436.236 1.06999 435.676 0.939987 435.126 0.829987C434.576 0.719987 434.016 0.609989 433.456 0.519989V13.32C433.455 29.7288 427.789 45.6341 417.416 58.348C407.042 71.0619 392.598 79.8047 376.523 83.099C376.52 83.1526 376.52 83.2064 376.523 83.26C376.663 85.21 376.833 87.15 377.023 89.1H433.453V178.38H403.786C404.596 179.91 405.416 181.42 406.256 182.93H433.456V222.1C434.936 223.85 436.449 225.577 437.996 227.28V182.93H466.136V173.75H466.126C466.036 173.78 465.956 173.81 465.866 173.84C452.156 178.45 437.996 168.05 437.996 153.58V89.1H466.136Z" fill="black"/>
<path d="M127.948 451.343L78.206 433.964C72.7297 406.839 73.9575 378.787 81.783 352.244C100.653 397.674 159.509 410.375 192.183 447.144C202.288 458.69 209.665 472.362 213.768 487.147C217.87 501.932 218.593 517.451 215.883 532.553L225.407 568.689C200.8 565.866 177.097 557.743 155.932 544.878C134.767 532.012 116.642 514.712 102.807 494.168C95.1594 482.566 89.0033 470.047 84.484 456.906C105.952 455.386 127.948 451.343 127.948 451.343Z" fill="#F2F2F2"/>
<path d="M195.166 177.968C193.999 177.968 192.88 177.504 192.055 176.679C191.23 175.854 190.766 174.735 190.766 173.568V143.657C190.766 142.49 191.23 141.371 192.055 140.546C192.88 139.721 193.999 139.257 195.166 139.257C196.333 139.257 197.452 139.721 198.277 140.546C199.102 141.371 199.566 142.49 199.566 143.657V173.569C199.566 174.736 199.102 175.855 198.277 176.68C197.452 177.505 196.333 177.969 195.166 177.969V177.968Z" fill="#3F3D56"/>
<path d="M349.397 154.085H314.617C307.115 154.085 301.033 160.167 301.033 167.669C301.033 175.171 307.115 181.253 314.617 181.253H349.397C356.899 181.253 362.981 175.171 362.981 167.669C362.981 160.167 356.899 154.085 349.397 154.085Z" fill="#23CE6B"/>
<path d="M413.922 208.421H250.092C242.59 208.421 236.508 214.503 236.508 222.005C236.508 229.507 242.59 235.589 250.092 235.589H413.922C421.424 235.589 427.506 229.507 427.506 222.005C427.506 214.503 421.424 208.421 413.922 208.421Z" fill="white"/>
<path d="M413.922 262.758H250.092C242.59 262.758 236.508 268.84 236.508 276.342C236.508 283.844 242.59 289.926 250.092 289.926H413.922C421.424 289.926 427.506 283.844 427.506 276.342C427.506 268.84 421.424 262.758 413.922 262.758Z" fill="white"/>
<path d="M194.284 119.903C193.117 119.903 191.998 119.439 191.173 118.614C190.348 117.789 189.884 116.67 189.884 115.503V85.592C189.884 84.425 190.348 83.3059 191.173 82.4807C191.998 81.6556 193.117 81.192 194.284 81.192C195.451 81.192 196.57 81.6556 197.395 82.4807C198.22 83.3059 198.684 84.425 198.684 85.592V115.504C198.684 116.671 198.22 117.79 197.395 118.615C196.57 119.44 195.451 119.903 194.284 119.903Z" fill="#3F3D56"/>
<path d="M302.294 14.53C302.294 13.363 302.758 12.2439 303.583 11.4187C304.408 10.5936 305.527 10.13 306.694 10.13H336.606C337.773 10.13 338.892 10.5936 339.717 11.4187C340.542 12.2439 341.006 13.363 341.006 14.53C341.006 15.697 340.542 16.8161 339.717 17.6413C338.892 18.4664 337.773 18.93 336.606 18.93H306.693C305.526 18.93 304.407 18.4664 303.582 17.6413C302.757 16.8161 302.293 15.697 302.293 14.53H302.294Z" fill="white"/>
<path d="M195.166 228.995C193.999 228.995 192.88 228.531 192.055 227.706C191.23 226.881 190.766 225.762 190.766 224.595V194.684C190.766 193.517 191.23 192.398 192.055 191.573C192.88 190.748 193.999 190.284 195.166 190.284C196.333 190.284 197.452 190.748 198.277 191.573C199.102 192.398 199.566 193.517 199.566 194.684V224.596C199.566 225.763 199.102 226.882 198.277 227.707C197.452 228.532 196.333 228.995 195.166 228.995Z" fill="#3F3D56"/>
<path d="M469.166 163.995C467.999 163.995 466.88 163.531 466.055 162.706C465.23 161.881 464.766 160.762 464.766 159.595V129.684C464.766 129.106 464.88 128.534 465.101 128C465.322 127.466 465.646 126.981 466.055 126.573C466.463 126.164 466.948 125.84 467.482 125.619C468.016 125.398 468.588 125.284 469.166 125.284C469.744 125.284 470.316 125.398 470.85 125.619C471.384 125.84 471.869 126.164 472.277 126.573C472.686 126.981 473.01 127.466 473.231 128C473.452 128.534 473.566 129.106 473.566 129.684V159.596C473.566 160.763 473.102 161.882 472.277 162.707C471.452 163.532 470.333 163.995 469.166 163.995Z" fill="#3F3D56"/>
<path d="M353.321 18.932C355.75 18.932 357.72 16.9625 357.72 14.533C357.72 12.1035 355.75 10.134 353.321 10.134C350.891 10.134 348.922 12.1035 348.922 14.533C348.922 16.9625 350.891 18.932 353.321 18.932Z" fill="white"/>
<path d="M421.433 537.817C417.641 541.087 413.654 544.123 409.493 546.907C407.113 548.507 404.673 550.017 402.193 551.447C387.771 559.776 371.84 565.163 355.323 567.297H236.966C227.547 567.305 218.445 563.898 211.346 557.707C207.832 554.648 204.887 550.992 202.646 546.907C199.516 541.175 197.879 534.748 197.886 528.217V312.577C202.406 312.897 206.893 313.347 211.346 313.927C212.866 314.117 214.376 314.327 215.886 314.557C246.797 319.121 276.519 329.675 303.386 345.627C304.906 346.527 306.426 347.447 307.926 348.397C321.376 356.775 333.97 366.455 345.526 377.297C347.116 378.787 348.686 380.304 350.236 381.847C375.69 407.005 395.243 437.498 407.486 471.127C408.036 472.637 408.569 474.157 409.086 475.687C415.924 495.762 420.076 516.653 421.436 537.817H421.433Z" fill="#23CE6B"/>
<path opacity="0.2" d="M307.923 546.907C307.923 537.553 309.765 528.291 313.345 519.65C316.925 511.009 322.172 503.157 328.786 496.543C335.401 489.93 343.253 484.684 351.895 481.105C360.537 477.527 369.799 475.686 379.153 475.687H409.083C408.563 474.157 408.03 472.637 407.483 471.127H307.923V381.847H350.233C348.683 380.307 347.113 378.79 345.523 377.297H307.923V348.397C306.423 347.447 304.903 346.527 303.383 345.627V377.297H215.883V314.557C214.373 314.327 212.863 314.117 211.343 313.927V377.297H197.883V381.847H211.343V471.13H197.883V475.69H211.343V546.91H202.643C203.509 548.487 204.481 550.004 205.553 551.45H211.343V557.71C212.771 558.956 214.289 560.095 215.883 561.12V551.45H303.383V567.3H307.923V551.45H402.193C404.673 550.02 407.113 548.51 409.493 546.91L307.923 546.907ZM303.383 546.907H215.883V475.687H303.383V546.907ZM303.383 471.127H215.883V469.357C215.883 446.15 225.101 423.892 241.51 407.481C257.919 391.07 280.176 381.849 303.383 381.847V471.127Z" fill="black"/>
<path d="M287.893 426.557C287.894 430.324 286.643 433.985 284.337 436.964C282.031 439.944 278.801 442.072 275.154 443.017C271.506 443.961 267.649 443.667 264.187 442.181C260.725 440.695 257.855 438.101 256.027 434.806C254.2 431.512 253.518 427.704 254.09 423.98C254.661 420.256 256.454 416.828 259.185 414.234C261.917 411.639 265.433 410.025 269.181 409.646C272.929 409.266 276.697 410.143 279.893 412.137C276.568 416.025 273.81 420.365 271.703 425.027C275.45 421.279 280.243 418.751 285.453 417.777C287.056 420.425 287.9 423.462 287.893 426.557Z" fill="#2F2E41"/>
<path d="M345.872 523.578C343.208 520.914 341.504 517.441 341.028 513.704C340.552 509.967 341.331 506.178 343.242 502.931C345.153 499.685 348.089 497.165 351.588 495.768C355.086 494.371 358.95 494.176 362.572 495.213C366.194 496.25 369.368 498.461 371.597 501.498C373.826 504.536 374.983 508.227 374.886 511.993C374.789 515.759 373.444 519.387 371.062 522.305C368.679 525.224 365.395 527.268 361.725 528.118C361.327 523.017 360.208 517.999 358.402 513.212C358.402 518.514 356.799 523.691 353.802 528.065C350.797 527.324 348.054 525.772 345.872 523.578Z" fill="#2F2E41"/>
<path d="M446.666 53.202H217.346C217.082 53.1937 216.832 53.0831 216.648 52.8936C216.465 52.704 216.362 52.4504 216.362 52.1865C216.362 51.9226 216.465 51.669 216.648 51.4794C216.832 51.2899 217.082 51.1793 217.346 51.171H446.666C446.93 51.1793 447.18 51.2899 447.364 51.4794C447.547 51.669 447.65 51.9226 447.65 52.1865C447.65 52.4504 447.547 52.704 447.364 52.8936C447.18 53.0831 446.93 53.1937 446.666 53.202Z" fill="white"/>
<path d="M234.726 45.988C238.012 45.988 240.676 43.2645 240.676 39.905C240.676 36.5454 238.012 33.822 234.726 33.822C231.44 33.822 228.776 36.5454 228.776 39.905C228.776 43.2645 231.44 45.988 234.726 45.988Z" fill="white"/>
<path d="M255.282 45.988C258.568 45.988 261.232 43.2645 261.232 39.905C261.232 36.5454 258.568 33.822 255.282 33.822C251.996 33.822 249.332 36.5454 249.332 39.905C249.332 43.2645 251.996 45.988 255.282 45.988Z" fill="white"/>
<path d="M275.838 45.988C279.124 45.988 281.788 43.2645 281.788 39.905C281.788 36.5454 279.124 33.822 275.838 33.822C272.552 33.822 269.888 36.5454 269.888 39.905C269.888 43.2645 272.552 45.988 275.838 45.988Z" fill="white"/>
<path d="M434.293 35.33H419.693C419.545 35.3255 419.398 35.3508 419.26 35.4044C419.122 35.458 418.996 35.5387 418.89 35.6418C418.783 35.7449 418.699 35.8682 418.641 36.0046C418.583 36.1409 418.554 36.2875 418.554 36.4355C418.554 36.5835 418.583 36.7301 418.641 36.8664C418.699 37.0028 418.783 37.1261 418.89 37.2292C418.996 37.3323 419.122 37.413 419.26 37.4666C419.398 37.5201 419.545 37.5454 419.693 37.541H434.293C434.441 37.5454 434.588 37.5201 434.726 37.4666C434.864 37.413 434.99 37.3323 435.096 37.2292C435.203 37.1261 435.287 37.0028 435.345 36.8664C435.403 36.7301 435.432 36.5835 435.432 36.4355C435.432 36.2875 435.403 36.1409 435.345 36.0046C435.287 35.8682 435.203 35.7449 435.096 35.6418C434.99 35.5387 434.864 35.458 434.726 35.4044C434.588 35.3508 434.441 35.3255 434.293 35.33Z" fill="white"/>
<path d="M434.293 39.479H419.693C419.545 39.4745 419.398 39.4998 419.26 39.5534C419.122 39.6069 418.996 39.6877 418.89 39.7908C418.783 39.8938 418.699 40.0172 418.641 40.1536C418.583 40.2899 418.554 40.4364 418.554 40.5845C418.554 40.7325 418.583 40.8791 418.641 41.0154C418.699 41.1518 418.783 41.2751 418.89 41.3782C418.996 41.4813 419.122 41.562 419.26 41.6156C419.398 41.6691 419.545 41.6944 419.693 41.69H434.293C434.441 41.6944 434.588 41.6691 434.726 41.6156C434.864 41.562 434.99 41.4813 435.096 41.3782C435.203 41.2751 435.287 41.1518 435.345 41.0154C435.403 40.8791 435.432 40.7325 435.432 40.5845C435.432 40.4364 435.403 40.2899 435.345 40.1536C435.287 40.0172 435.203 39.8938 435.096 39.7908C434.99 39.6877 434.864 39.6069 434.726 39.5534C434.588 39.4998 434.441 39.4745 434.293 39.479Z" fill="white"/>
<path d="M434.293 43.624H419.693C419.545 43.6196 419.398 43.6449 419.26 43.6984C419.122 43.752 418.996 43.8327 418.89 43.9358C418.783 44.0389 418.699 44.1622 418.641 44.2986C418.583 44.4349 418.554 44.5815 418.554 44.7295C418.554 44.8775 418.583 45.0241 418.641 45.1604C418.699 45.2968 418.783 45.4201 418.89 45.5232C418.996 45.6263 419.122 45.707 419.26 45.7606C419.398 45.8142 419.545 45.8395 419.693 45.835H434.293C434.441 45.8395 434.588 45.8142 434.726 45.7606C434.864 45.707 434.99 45.6263 435.096 45.5232C435.203 45.4201 435.287 45.2968 435.345 45.1604C435.403 45.0241 435.432 44.8775 435.432 44.7295C435.432 44.5815 435.403 44.4349 435.345 44.2986C435.287 44.1622 435.203 44.0389 435.096 43.9358C434.99 43.8327 434.864 43.752 434.726 43.6984C434.588 43.6449 434.441 43.6196 434.293 43.624Z" fill="white"/>
<path d="M749.941 569.295L1.19098 569.602C0.881212 569.593 0.587149 569.464 0.371216 569.241C0.155283 569.019 0.0344849 568.721 0.0344849 568.411C0.0344849 568.102 0.155283 567.804 0.371216 567.582C0.587149 567.359 0.881212 567.23 1.19098 567.221L749.941 566.914C750.251 566.923 750.545 567.052 750.761 567.275C750.977 567.497 751.097 567.795 751.097 568.104C751.097 568.414 750.977 568.712 750.761 568.934C750.545 569.157 750.251 569.286 749.941 569.295Z" fill="#CACACA"/>
</svg>
