<svg width="862" height="489" viewBox="0 0 862 489" fill="none" xmlns="http://www.w3.org/2000/svg">
<path d="M804.996 487.5H587.647C579.739 487.491 572.157 484.345 566.566 478.753C560.975 473.161 557.83 465.579 557.822 457.671V114.832C557.831 106.924 560.976 99.343 566.567 93.7515C572.159 88.1599 579.74 85.0147 587.648 85.006H804.996C812.904 85.0147 820.485 88.1599 826.076 93.7515C831.668 99.343 834.813 106.924 834.822 114.832V457.671C834.813 465.578 831.668 473.16 826.076 478.751C820.485 484.342 812.903 487.487 804.996 487.496V487.5Z" fill="#E6E6E6"/>
<path d="M808.6 102.804H587.237C584.762 102.807 582.388 103.792 580.638 105.542C578.887 107.292 577.903 109.666 577.9 112.141V459.454C577.904 461.929 578.889 464.302 580.639 466.052C582.389 467.802 584.762 468.787 587.237 468.791H808.6C811.075 468.788 813.449 467.803 815.199 466.053C816.949 464.303 817.934 461.929 817.937 459.454V112.14C817.934 109.665 816.949 107.292 815.199 105.542C813.448 103.791 811.075 102.807 808.6 102.804Z" fill="white"/>
<path d="M592.961 85.006C592.961 84.401 593.202 83.8208 593.63 83.393C594.058 82.9651 594.638 82.7245 595.243 82.724H610.761C611.358 82.7365 611.926 82.9824 612.344 83.4089C612.761 83.8354 612.995 84.4085 612.995 85.0055C612.995 85.6024 612.761 86.1756 612.344 86.6021C611.926 87.0286 611.358 87.2745 610.761 87.287H595.242C594.637 87.2862 594.057 87.0456 593.63 86.618C593.202 86.1904 592.962 85.6107 592.961 85.006Z" fill="#E6E6E6"/>
<path d="M618.515 85.006C618.515 84.401 618.756 83.8208 619.184 83.393C619.612 82.9651 620.192 82.7245 620.797 82.724H636.313C636.91 82.7365 637.478 82.9824 637.896 83.4089C638.313 83.8354 638.547 84.4085 638.547 85.0055C638.547 85.6024 638.313 86.1756 637.896 86.6021C637.478 87.0286 636.91 87.2745 636.313 87.287H620.797C620.192 87.2865 619.612 87.0459 619.184 86.618C618.756 86.1902 618.515 85.6101 618.515 85.005V85.006Z" fill="#E6E6E6"/>
<path d="M771.846 85.006C771.846 84.401 772.087 83.8208 772.515 83.393C772.943 82.9651 773.523 82.7245 774.128 82.724H789.644C789.948 82.7177 790.249 82.772 790.532 82.8838C790.814 82.9956 791.071 83.1626 791.288 83.3751C791.505 83.5876 791.678 83.8412 791.795 84.1212C791.913 84.4012 791.974 84.7018 791.974 85.0055C791.974 85.3092 791.913 85.6098 791.795 85.8898C791.678 86.1698 791.505 86.4235 791.288 86.6359C791.071 86.8484 790.814 87.0155 790.532 87.1273C790.249 87.2391 789.948 87.2934 789.644 87.287H774.128C773.523 87.2865 772.943 87.046 772.515 86.6184C772.088 86.1908 771.847 85.6109 771.846 85.006Z" fill="#E6E6E6"/>
<path d="M728.594 461.635C728.594 464.035 728.548 466.427 728.439 468.79H587.239C584.764 468.786 582.391 467.801 580.641 466.051C578.891 464.301 577.906 461.928 577.902 459.453V284.638C619.952 291.432 658.209 312.974 685.821 345.407C713.434 377.839 728.597 419.043 728.596 461.638L728.594 461.635Z" fill="#F2F2F2"/>
<path d="M723.799 192.056H671.138C668.742 192.056 666.799 193.999 666.799 196.395V201.809C666.799 204.205 668.742 206.148 671.138 206.148H723.799C726.195 206.148 728.138 204.205 728.138 201.809V196.395C728.138 193.999 726.195 192.056 723.799 192.056Z" fill="#23CE6B"/>
<path d="M757.268 220.241H637.669C635.273 220.241 633.33 222.184 633.33 224.58V229.994C633.33 232.39 635.273 234.333 637.669 234.333H757.268C759.664 234.333 761.607 232.39 761.607 229.994V224.58C761.607 222.184 759.664 220.241 757.268 220.241Z" fill="#E6E6E6"/>
<path d="M757.268 248.426H637.669C635.273 248.426 633.33 250.369 633.33 252.765V258.179C633.33 260.575 635.273 262.518 637.669 262.518H757.268C759.664 262.518 761.607 260.575 761.607 258.179V252.765C761.607 250.369 759.664 248.426 757.268 248.426Z" fill="#E6E6E6"/>
<path d="M736.789 445.054C736.104 445.085 735.426 444.904 734.847 444.537C734.267 444.17 733.815 443.634 733.55 443.001C733.286 442.369 733.222 441.67 733.367 441C733.512 440.33 733.86 439.72 734.363 439.254L734.592 438.342L734.501 438.123C733.81 436.492 732.652 435.101 731.173 434.125C729.694 433.149 727.96 432.632 726.188 432.639C724.416 432.645 722.686 433.175 721.215 434.162C719.743 435.149 718.596 436.548 717.917 438.185C715.205 444.718 711.751 451.262 710.901 458.169C710.527 461.222 710.685 464.317 711.368 467.316C704.997 453.419 701.689 438.315 701.668 423.027C701.666 419.191 701.879 415.357 702.306 411.545C702.659 408.42 703.148 405.317 703.773 402.236C707.186 385.519 714.516 369.849 725.161 356.515C730.313 353.704 734.48 349.38 737.1 344.128C738.049 342.24 738.72 340.224 739.092 338.144C738.511 338.22 737.92 338.268 737.339 338.306L736.786 338.335H736.718C736.08 338.363 735.447 338.206 734.896 337.883C734.345 337.56 733.899 337.085 733.611 336.515C733.324 335.945 733.207 335.304 733.275 334.669C733.342 334.034 733.592 333.432 733.994 332.935L734.747 332.009C735.128 331.533 735.519 331.066 735.9 330.589C735.944 330.544 735.985 330.496 736.024 330.446C736.462 329.903 736.901 329.369 737.339 328.826C736.539 327.584 735.463 326.544 734.195 325.787C729.802 323.214 723.742 324.996 720.569 328.969C717.396 332.942 716.786 338.517 717.891 343.481C718.978 347.705 720.776 351.714 723.208 355.335C722.97 355.635 722.722 355.935 722.484 356.24C718.129 361.839 714.334 367.852 711.152 374.192C711.926 367.09 711.002 359.905 708.458 353.229C705.879 347.007 701.045 341.767 696.788 336.389C691.675 329.928 681.188 332.748 680.288 340.938C680.279 341.017 680.271 341.097 680.262 341.176C680.894 341.533 681.513 341.911 682.119 342.312C682.88 342.82 683.469 343.547 683.81 344.396C684.151 345.245 684.228 346.177 684.03 347.07C683.832 347.964 683.369 348.776 682.701 349.402C682.033 350.027 681.192 350.437 680.288 350.576L680.195 350.59C680.42 352.869 680.818 355.127 681.386 357.346C683.031 363.539 685.937 369.326 689.923 374.343C693.909 379.361 698.889 383.5 704.55 386.503C704.922 386.694 705.284 386.884 705.655 387.065C702.458 396.124 700.453 405.56 699.69 415.136C699.258 420.786 699.283 426.461 699.766 432.106L699.737 431.906C698.518 425.63 695.171 419.966 690.261 415.871C682.961 409.877 672.661 407.671 664.786 402.853C663.949 402.316 662.977 402.029 661.982 402.027C660.988 402.024 660.014 402.306 659.175 402.839C658.336 403.372 657.667 404.134 657.246 405.035C656.826 405.936 656.672 406.938 656.803 407.924C656.814 407.994 656.824 408.064 656.835 408.134C658.008 408.612 659.151 409.162 660.256 409.782C660.888 410.139 661.507 410.517 662.113 410.918C662.874 411.426 663.463 412.153 663.804 413.002C664.145 413.851 664.222 414.783 664.024 415.676C663.826 416.57 663.363 417.382 662.695 418.008C662.027 418.633 661.186 419.043 660.282 419.182L660.189 419.196L659.999 419.225C662.004 424.012 664.817 428.418 668.317 432.251C672.64 436.89 677.865 440.597 683.672 443.145C689.479 445.693 695.745 447.028 702.086 447.068H702.096C703.817 454.548 706.311 461.829 709.538 468.793H736.123C736.223 468.493 736.304 468.193 736.39 467.893C733.929 468.048 731.459 467.901 729.034 467.455C731.006 465.035 732.979 462.595 734.951 460.175C734.995 460.13 735.036 460.082 735.075 460.032C736.075 458.793 737.086 457.564 738.086 456.325C738.138 452.528 737.701 448.74 736.786 445.054H736.789ZM706.346 385.171L706.36 385.152L706.346 385.19V385.171ZM700.461 438.251L700.232 437.737C700.242 437.365 700.242 436.994 700.232 436.613C700.232 436.513 700.213 436.403 700.213 436.298C700.299 436.955 700.375 437.613 700.47 438.27L700.461 438.251Z" fill="#CCCCCC"/>
<path d="M797.535 133.471H598.302C597.864 133.471 597.445 133.297 597.135 132.988C596.826 132.678 596.652 132.259 596.652 131.821C596.652 131.383 596.826 130.964 597.135 130.654C597.445 130.345 597.864 130.171 598.302 130.171H797.535C797.973 130.171 798.392 130.345 798.702 130.654C799.011 130.964 799.185 131.383 799.185 131.821C799.185 132.259 799.011 132.678 798.702 132.988C798.392 133.297 797.973 133.471 797.535 133.471Z" fill="#CACACA"/>
<path d="M608.932 125.4C611.608 125.4 613.778 123.182 613.778 120.446C613.778 117.71 611.608 115.492 608.932 115.492C606.256 115.492 604.086 117.71 604.086 120.446C604.086 123.182 606.256 125.4 608.932 125.4Z" fill="#3F3D56"/>
<path d="M625.673 125.4C628.349 125.4 630.519 123.182 630.519 120.446C630.519 117.71 628.349 115.492 625.673 115.492C622.997 115.492 620.827 117.71 620.827 120.446C620.827 123.182 622.997 125.4 625.673 125.4Z" fill="#3F3D56"/>
<path d="M642.415 125.4C645.091 125.4 647.261 123.182 647.261 120.446C647.261 117.71 645.091 115.492 642.415 115.492C639.739 115.492 637.569 117.71 637.569 120.446C637.569 123.182 639.739 125.4 642.415 125.4Z" fill="#3F3D56"/>
<path d="M789.748 117.406H778.903C778.685 117.406 778.476 117.493 778.322 117.647C778.168 117.801 778.081 118.01 778.081 118.228C778.081 118.445 778.168 118.654 778.322 118.808C778.476 118.962 778.685 119.049 778.903 119.049H789.748C789.966 119.049 790.174 118.963 790.328 118.809C790.482 118.655 790.569 118.446 790.569 118.228C790.569 118.01 790.482 117.801 790.328 117.647C790.174 117.493 789.966 117.407 789.748 117.407V117.406Z" fill="#3F3D56"/>
<path d="M789.748 120.489H778.903C778.685 120.489 778.476 120.575 778.322 120.729C778.168 120.883 778.082 121.092 778.082 121.31C778.082 121.528 778.168 121.737 778.322 121.891C778.476 122.045 778.685 122.131 778.903 122.131H789.748C789.966 122.131 790.174 122.045 790.328 121.891C790.482 121.737 790.569 121.528 790.569 121.31C790.569 121.092 790.482 120.883 790.328 120.729C790.174 120.575 789.966 120.489 789.748 120.489Z" fill="#3F3D56"/>
<path d="M789.748 123.571H778.903C778.685 123.571 778.476 123.657 778.322 123.811C778.168 123.965 778.082 124.174 778.082 124.392C778.082 124.61 778.168 124.819 778.322 124.973C778.476 125.127 778.685 125.213 778.903 125.213H789.748C789.966 125.213 790.175 125.126 790.329 124.972C790.483 124.818 790.569 124.609 790.569 124.392C790.569 124.174 790.483 123.965 790.329 123.811C790.175 123.657 789.966 123.57 789.748 123.57V123.571Z" fill="#3F3D56"/>
<path d="M466.494 284.771H350.984C349.35 284.773 347.783 285.425 346.629 286.582C345.475 287.739 344.828 289.307 344.83 290.941V473.41H472.661V290.938C472.661 290.128 472.502 289.325 472.193 288.576C471.883 287.828 471.428 287.147 470.855 286.574C470.282 286.001 469.602 285.547 468.853 285.237C468.105 284.927 467.302 284.768 466.492 284.768L466.494 284.771ZM409.127 388.447C405.514 388.431 402.054 386.989 399.499 384.434C396.945 381.88 395.503 378.42 395.487 374.807V353.76C395.487 350.142 396.924 346.673 399.482 344.115C402.04 341.557 405.509 340.12 409.127 340.12C412.745 340.12 416.214 341.557 418.772 344.115C421.33 346.673 422.767 350.142 422.767 353.76V374.807C422.751 378.42 421.309 381.88 418.754 384.434C416.2 386.989 412.74 388.431 409.127 388.447Z" fill="#E6E6E6"/>
<path d="M344.433 467.571V485.171C344.435 486.083 344.798 486.958 345.443 487.603C346.088 488.248 346.963 488.611 347.875 488.613H469.618C470.528 488.609 471.401 488.246 472.045 487.603C472.69 486.96 473.055 486.088 473.061 485.178V467.571H344.433Z" fill="#CCCCCC"/>
<path d="M657.768 0H164.008C159.767 0.00740267 155.701 1.69549 152.702 4.69447C149.703 7.69345 148.015 11.7588 148.008 16V349.194C148.013 353.436 149.7 357.503 152.699 360.502C155.699 363.502 159.766 365.189 164.008 365.194H657.768C662.01 365.189 666.077 363.502 669.076 360.502C672.076 357.503 673.763 353.436 673.768 349.194V16.003C673.76 11.7619 672.072 7.69668 669.073 4.69775C666.074 1.69883 662.009 0.0106722 657.768 0.00300598V0Z" fill="#E6E6E6"/>
<path d="M653.646 11.559H168.133C165.862 11.5641 163.685 12.4698 162.081 14.0775C160.476 15.6853 159.575 17.8637 159.575 20.135V345.071C159.579 347.34 160.482 349.514 162.086 351.118C163.69 352.722 165.864 353.625 168.133 353.629H653.646C655.914 353.625 658.089 352.722 659.693 351.118C661.297 349.514 662.2 347.34 662.204 345.071V20.135C662.204 17.8637 661.303 15.6853 659.698 14.0775C658.094 12.4698 655.917 11.5641 653.646 11.559Z" fill="white"/>
<path d="M662.205 20.135V345.071C662.201 347.34 661.298 349.514 659.694 351.118C658.09 352.722 655.915 353.625 653.647 353.629H482.447C463.508 336.065 447.97 315.158 436.613 291.959C435.866 290.464 435.154 288.952 434.478 287.422C424.132 264.967 417.867 240.849 415.978 216.197C415.853 214.685 415.747 213.172 415.678 211.642C415.447 207.728 415.34 203.76 415.34 199.774C415.306 173.267 420.311 146.995 430.09 122.357C430.677 120.827 431.3 119.314 431.94 117.802C451.617 71.5645 487.173 33.8833 532.192 11.559H653.646C655.917 11.5638 658.094 12.4694 659.699 14.0772C661.303 15.6849 662.205 17.8636 662.205 20.135Z" fill="#23CE6B"/>
<path d="M629.241 56.328H174.948C174.469 56.328 174.009 56.1376 173.67 55.7987C173.331 55.4598 173.141 55.0002 173.141 54.521C173.141 54.0417 173.331 53.5821 173.67 53.2432C174.009 52.9044 174.469 52.714 174.948 52.714H629.241C629.72 52.714 630.18 52.9044 630.519 53.2432C630.858 53.5821 631.048 54.0417 631.048 54.521C631.048 55.0002 630.858 55.4598 630.519 55.7987C630.18 56.1376 629.72 56.328 629.241 56.328Z" fill="#CACACA"/>
<path d="M205.87 43.489C211.717 43.489 216.457 38.6434 216.457 32.666C216.457 26.6886 211.717 21.843 205.87 21.843C200.023 21.843 195.283 26.6886 195.283 32.666C195.283 38.6434 200.023 43.489 205.87 43.489Z" fill="#3F3D56"/>
<path d="M242.447 43.489C248.294 43.489 253.034 38.6434 253.034 32.666C253.034 26.6886 248.294 21.843 242.447 21.843C236.6 21.843 231.86 26.6886 231.86 32.666C231.86 38.6434 236.6 43.489 242.447 43.489Z" fill="#3F3D56"/>
<path d="M279.022 43.489C284.869 43.489 289.609 38.6434 289.609 32.666C289.609 26.6886 284.869 21.843 279.022 21.843C273.175 21.843 268.435 26.6886 268.435 32.666C268.435 38.6434 273.175 43.489 279.022 43.489Z" fill="#3F3D56"/>
<path d="M607.219 24.526H581.238C580.716 24.526 580.216 24.7333 579.847 25.1023C579.478 25.4712 579.27 25.9717 579.27 26.4935C579.27 27.0153 579.478 27.5158 579.847 27.8847C580.216 28.2537 580.716 28.461 581.238 28.461H607.219C607.741 28.461 608.241 28.2537 608.61 27.8847C608.979 27.5158 609.186 27.0153 609.186 26.4935C609.186 25.9717 608.979 25.4712 608.61 25.1023C608.241 24.7333 607.741 24.526 607.219 24.526Z" fill="#3F3D56"/>
<path d="M607.219 31.91H581.238C580.716 31.91 580.216 32.1173 579.847 32.4863C579.478 32.8552 579.27 33.3557 579.27 33.8775C579.27 34.3993 579.478 34.8998 579.847 35.2687C580.216 35.6377 580.716 35.845 581.238 35.845H607.219C607.741 35.845 608.241 35.6377 608.61 35.2687C608.979 34.8998 609.186 34.3993 609.186 33.8775C609.186 33.3557 608.979 32.8552 608.61 32.4863C608.241 32.1173 607.741 31.91 607.219 31.91Z" fill="#3F3D56"/>
<path d="M607.219 39.285H581.238C580.716 39.285 580.216 39.4923 579.847 39.8613C579.478 40.2302 579.27 40.7307 579.27 41.2525C579.27 41.7743 579.478 42.2748 579.847 42.6437C580.216 43.0127 580.716 43.22 581.238 43.22H607.219C607.741 43.22 608.241 43.0127 608.61 42.6437C608.979 42.2748 609.186 41.7743 609.186 41.2525C609.186 40.7307 608.979 40.2302 608.61 39.8613C608.241 39.4923 607.741 39.285 607.219 39.285Z" fill="#3F3D56"/>
<path d="M314.046 161.871H250.517C248.121 161.871 246.178 163.814 246.178 166.21V172.973C246.178 175.369 248.121 177.312 250.517 177.312H314.046C316.442 177.312 318.385 175.369 318.385 172.973V166.21C318.385 163.814 316.442 161.871 314.046 161.871Z" fill="#23CE6B"/>
<path d="M350.718 192.752H213.846C211.45 192.752 209.507 194.695 209.507 197.091V203.854C209.507 206.25 211.45 208.193 213.846 208.193H350.718C353.114 208.193 355.057 206.25 355.057 203.854V197.091C355.057 194.695 353.114 192.752 350.718 192.752Z" fill="#E6E6E6"/>
<path d="M350.718 223.633H213.846C211.45 223.633 209.507 225.576 209.507 227.972V234.735C209.507 237.131 211.45 239.074 213.846 239.074H350.718C353.114 239.074 355.057 237.131 355.057 234.735V227.972C355.057 225.576 353.114 223.633 350.718 223.633Z" fill="#E6E6E6"/>
<path d="M221.387 334.998C221.398 341.358 220.265 347.668 218.042 353.627H168.133C165.864 353.623 163.69 352.72 162.086 351.116C160.482 349.512 159.579 347.338 159.575 345.069V282.295C162.364 281.844 165.184 281.618 168.009 281.619C175.019 281.619 181.961 282.999 188.437 285.682C194.914 288.364 200.799 292.296 205.756 297.254C210.712 302.211 214.644 308.096 217.326 314.572C220.009 321.049 221.389 327.991 221.388 335.001L221.387 334.998Z" fill="#6C63FF"/>
<path opacity="0.2" d="M662.65 122.355V117.8H586.301V65.009H581.761V117.8H494.261V65.009H489.721V117.8H431.93C431.289 119.312 430.667 120.825 430.079 122.355H489.721V211.64H415.667C415.738 213.17 415.845 214.683 415.967 216.195H489.721V287.42H434.474C435.15 288.953 435.862 290.466 436.609 291.957H489.721V351.829H494.261V291.957H581.761V351.829H586.298V291.957H662.647V287.42H586.301C586.301 268.53 593.805 250.414 607.162 237.056C620.52 223.699 638.636 216.195 657.526 216.195H662.65V211.64H586.301V122.355H662.65ZM581.761 287.419H494.261V216.195H581.761V287.419ZM581.761 211.639H494.261V209.86C494.261 186.653 503.48 164.397 519.889 147.986C536.298 131.576 558.554 122.356 581.761 122.355V211.639Z" fill="black"/>
<path d="M601.177 319.916C600.203 319.961 599.239 319.705 598.416 319.183C597.592 318.662 596.949 317.9 596.573 317C596.196 316.101 596.106 315.108 596.313 314.155C596.52 313.203 597.015 312.337 597.731 311.675L598.057 310.375L597.928 310.064C593.551 299.626 578.715 299.698 574.375 310.152C570.523 319.43 565.618 328.724 564.411 338.534C563.879 342.87 564.103 347.266 565.074 351.525C556.026 331.788 551.328 310.337 551.298 288.625C551.296 283.177 551.599 277.733 552.205 272.318C552.706 267.879 553.4 263.472 554.289 259.096C559.138 235.355 569.55 213.102 584.67 194.166C591.988 190.173 597.905 184.034 601.626 176.574C602.974 173.892 603.926 171.029 604.454 168.074C603.629 168.182 602.79 168.25 601.964 168.304L601.179 168.345H601.079C600.172 168.386 599.272 168.163 598.488 167.705C597.704 167.246 597.07 166.57 596.661 165.759C596.252 164.948 596.087 164.037 596.184 163.134C596.281 162.231 596.638 161.375 597.21 160.67L598.28 159.355C598.821 158.678 599.38 158.015 599.917 157.339C599.979 157.276 600.038 157.209 600.093 157.139C600.716 156.368 601.338 155.61 601.961 154.839C600.825 153.075 599.296 151.598 597.495 150.522C591.256 146.868 582.65 149.399 578.143 155.042C573.636 160.685 572.771 168.602 574.343 175.652C575.683 181.688 578.606 187.222 581.894 192.487C581.556 192.92 581.204 193.34 580.865 193.773C574.68 201.727 569.29 210.268 564.772 219.273C565.871 209.186 564.559 198.982 560.945 189.501C557.282 180.665 550.417 173.223 544.371 165.584C537.109 156.409 522.218 160.413 520.938 172.044C520.925 172.157 520.913 172.269 520.902 172.382C521.8 172.889 522.679 173.426 523.539 173.995C524.62 174.717 525.457 175.748 525.942 176.954C526.426 178.16 526.535 179.484 526.254 180.753C525.973 182.022 525.315 183.176 524.367 184.065C523.418 184.953 522.223 185.534 520.939 185.732L520.807 185.752C521.127 188.989 521.693 192.196 522.499 195.347C524.835 204.143 528.963 212.362 534.625 219.487C540.286 226.613 547.359 232.493 555.399 236.757C555.927 237.028 556.441 237.298 556.969 237.557C552.429 250.423 549.582 263.824 548.498 277.424C547.884 285.447 547.92 293.507 548.606 301.524L548.565 301.24C546.831 292.326 542.074 284.284 535.098 278.471C524.736 269.959 510.098 266.824 498.917 259.982C493.536 256.688 486.64 260.945 487.579 267.182C487.594 267.281 487.609 267.381 487.625 267.482C489.291 268.161 490.914 268.943 492.483 269.823C493.381 270.33 494.26 270.867 495.12 271.436C496.2 272.158 497.037 273.189 497.521 274.395C498.006 275.601 498.114 276.925 497.833 278.194C497.552 279.462 496.895 280.616 495.946 281.505C494.998 282.393 493.804 282.975 492.52 283.173L492.388 283.193L492.117 283.234C494.964 290.033 498.961 296.291 503.931 301.734C510.071 308.322 517.492 313.587 525.739 317.206C533.986 320.824 542.885 322.72 551.891 322.777H551.905C554.35 333.4 557.892 343.741 562.474 353.632H600.231C600.366 353.213 600.488 352.779 600.61 352.36C597.115 352.58 593.607 352.371 590.163 351.738C592.963 348.301 595.763 344.838 598.563 341.399C598.625 341.336 598.684 341.269 598.739 341.199C600.16 339.44 601.594 337.699 603.015 335.935C603.091 330.542 602.472 325.163 601.174 319.928L601.177 319.916ZM557.941 234.864L557.961 234.837L557.941 234.891V234.864ZM549.578 310.255L549.253 309.524C549.267 308.996 549.267 308.468 549.253 307.924C549.253 307.775 549.226 307.624 549.226 307.477C549.348 308.411 549.456 309.345 549.591 310.277L549.578 310.255Z" fill="#2F2E41"/>
<path d="M264.972 231.612V180.871C264.972 173.082 261.878 165.612 256.37 160.104C250.862 154.596 243.392 151.502 235.603 151.502H128.096C124.239 151.502 120.42 152.262 116.857 153.738C113.294 155.214 110.056 157.377 107.329 160.104C104.602 162.831 102.438 166.069 100.963 169.632C99.4866 173.195 98.7269 177.014 98.7269 180.871V459.251C98.7269 463.108 99.4866 466.927 100.963 470.49C102.438 474.053 104.602 477.291 107.329 480.018C110.056 482.745 113.294 484.908 116.857 486.384C120.42 487.86 124.239 488.62 128.096 488.62H235.603C239.46 488.62 243.279 487.86 246.842 486.384C250.405 484.908 253.643 482.745 256.37 480.018C259.097 477.291 261.26 474.053 262.736 470.49C264.212 466.927 264.972 463.108 264.972 459.251V267.732C265.463 267.732 265.934 267.537 266.281 267.19C266.629 266.842 266.824 266.371 266.824 265.88V233.465C266.824 233.222 266.776 232.981 266.683 232.756C266.59 232.531 266.454 232.327 266.282 232.155C266.11 231.983 265.906 231.846 265.681 231.753C265.456 231.66 265.215 231.612 264.972 231.612Z" fill="#E6E6E6"/>
<path d="M258.722 181.071V459.051C258.723 464.826 256.444 470.367 252.382 474.471C248.321 478.576 242.803 480.911 237.029 480.971C236.95 480.979 236.871 480.983 236.792 480.981H128.761C122.945 480.98 117.368 478.67 113.255 474.558C109.143 470.446 106.832 464.869 106.831 459.053V181.071C106.831 175.255 109.142 169.678 113.254 165.565C117.366 161.453 122.943 159.142 128.759 159.141H141.871C141.226 160.724 140.981 162.441 141.155 164.141C141.33 165.84 141.92 167.471 142.873 168.89C143.827 170.308 145.114 171.471 146.622 172.275C148.13 173.079 149.812 173.5 151.521 173.501H213.111C214.818 173.496 216.498 173.073 218.004 172.267C219.51 171.462 220.794 170.3 221.746 168.882C222.698 167.465 223.287 165.835 223.462 164.137C223.637 162.438 223.393 160.723 222.751 159.141H236.791C242.607 159.142 248.184 161.452 252.297 165.564C256.409 169.676 258.72 175.253 258.721 181.069L258.722 181.071Z" fill="white"/>
<path d="M237.302 472.4C237.302 475.28 237.212 478.137 237.032 480.97C236.952 480.978 236.872 480.982 236.792 480.98H128.761C122.945 480.98 117.368 478.669 113.255 474.557C109.143 470.445 106.832 464.868 106.831 459.052V335.171C142.029 336.946 175.199 352.179 199.482 377.72C223.766 403.262 237.305 437.158 237.301 472.401L237.302 472.4Z" fill="#F2F2F2"/>
<path d="M99.322 260C98.6589 260 98.023 259.737 97.5542 259.268C97.0854 258.799 96.822 258.163 96.822 257.5V240.5C96.822 239.837 97.0854 239.201 97.5542 238.732C98.023 238.263 98.6589 238 99.322 238C99.985 238 100.621 238.263 101.09 238.732C101.559 239.201 101.822 239.837 101.822 240.5V257.5C101.822 258.163 101.559 258.799 101.09 259.268C100.621 259.737 99.985 260 99.322 260Z" fill="#E6E6E6"/>
<path d="M196.041 246.426H169.512C167.116 246.426 165.173 248.369 165.173 250.765V257.528C165.173 259.924 167.116 261.867 169.512 261.867H196.041C198.437 261.867 200.38 259.924 200.38 257.528V250.765C200.38 248.369 198.437 246.426 196.041 246.426Z" fill="#23CE6B"/>
<path d="M232.713 277.307H132.841C130.445 277.307 128.502 279.25 128.502 281.646V288.409C128.502 290.805 130.445 292.748 132.841 292.748H232.713C235.109 292.748 237.052 290.805 237.052 288.409V281.646C237.052 279.25 235.109 277.307 232.713 277.307Z" fill="#E6E6E6"/>
<path d="M232.713 308.188H132.841C130.445 308.188 128.502 310.131 128.502 312.527V319.29C128.502 321.686 130.445 323.629 132.841 323.629H232.713C235.109 323.629 237.052 321.686 237.052 319.29V312.527C237.052 310.131 235.109 308.188 232.713 308.188Z" fill="#E6E6E6"/>
<path d="M208.682 465.161C208.225 465.183 207.772 465.064 207.384 464.819C206.997 464.575 206.694 464.217 206.517 463.795C206.34 463.373 206.298 462.906 206.395 462.459C206.492 462.011 206.725 461.605 207.061 461.294L207.214 460.686L207.153 460.54C206.693 459.452 205.921 458.525 204.935 457.875C203.95 457.224 202.794 456.88 201.613 456.884C200.432 456.888 199.279 457.242 198.298 457.899C197.317 458.557 196.552 459.49 196.1 460.581C194.292 464.935 191.991 469.296 191.424 473.9C191.174 475.936 191.279 478 191.735 480C187.489 470.738 185.284 460.672 185.27 450.483C185.269 447.926 185.411 445.372 185.695 442.831C185.93 440.748 186.256 438.681 186.673 436.631C188.949 425.49 193.835 415.048 200.93 406.162C204.364 404.288 207.141 401.407 208.887 397.907C209.519 396.649 209.966 395.305 210.214 393.919C209.827 393.97 209.433 394.002 209.046 394.027L208.678 394.046H208.632C208.207 394.065 207.785 393.96 207.417 393.745C207.05 393.53 206.752 393.213 206.56 392.833C206.369 392.453 206.291 392.025 206.336 391.602C206.381 391.178 206.548 390.777 206.816 390.446L207.316 389.829C207.57 389.511 207.83 389.2 208.084 388.883C208.114 388.851 208.141 388.818 208.167 388.783C208.459 388.421 208.751 388.065 209.043 387.703C208.509 386.875 207.79 386.181 206.943 385.677C204.015 383.962 199.977 385.15 197.862 387.798C195.747 390.446 195.341 394.161 196.078 397.47C196.802 400.285 198.001 402.957 199.622 405.37C199.463 405.57 199.298 405.77 199.139 405.97C196.237 409.702 193.707 413.709 191.587 417.934C192.101 413.2 191.484 408.412 189.787 403.963C188.068 399.817 184.846 396.324 182.009 392.74C181.259 391.776 180.24 391.056 179.08 390.671C177.921 390.287 176.673 390.255 175.495 390.579C174.318 390.904 173.263 391.57 172.464 392.495C171.666 393.419 171.159 394.56 171.009 395.772C171.003 395.825 170.997 395.878 170.992 395.931C171.413 396.169 171.826 396.421 172.23 396.688C172.737 397.027 173.13 397.511 173.357 398.077C173.584 398.643 173.635 399.264 173.503 399.859C173.371 400.454 173.063 400.996 172.618 401.413C172.173 401.83 171.613 402.103 171.01 402.196L170.948 402.206C171.098 403.724 171.364 405.228 171.742 406.706C172.838 410.834 174.775 414.69 177.432 418.034C180.088 421.378 183.407 424.137 187.18 426.138C187.428 426.265 187.669 426.392 187.917 426.513C185.793 432.551 184.463 438.84 183.961 445.221C183.673 448.986 183.69 452.768 184.012 456.531L183.993 456.398C183.18 452.214 180.948 448.439 177.674 445.71C172.811 441.715 165.941 440.245 160.696 437.034C160.138 436.676 159.49 436.485 158.828 436.484C158.166 436.482 157.517 436.67 156.957 437.025C156.398 437.381 155.952 437.888 155.672 438.488C155.392 439.089 155.289 439.756 155.376 440.413L155.397 440.553C156.179 440.872 156.941 441.239 157.677 441.653C158.098 441.891 158.511 442.143 158.914 442.41C159.421 442.749 159.814 443.233 160.041 443.799C160.268 444.365 160.319 444.986 160.187 445.581C160.055 446.176 159.747 446.718 159.302 447.135C158.857 447.552 158.297 447.825 157.694 447.918L157.632 447.927L157.505 447.946C158.841 451.136 160.717 454.073 163.049 456.627C165.93 459.719 169.413 462.189 173.283 463.887C177.153 465.585 181.329 466.475 185.555 466.502H185.561C186.708 471.487 188.37 476.34 190.521 480.981H208.239C208.303 480.781 208.36 480.581 208.417 480.381C206.778 480.484 205.132 480.386 203.517 480.089C204.832 478.476 206.146 476.85 207.461 475.237C207.491 475.205 207.518 475.172 207.544 475.137C208.211 474.311 208.884 473.492 209.551 472.667C209.587 470.136 209.296 467.612 208.687 465.155L208.682 465.161ZM188.393 425.249L188.402 425.236L188.393 425.261V425.249ZM184.468 460.627L184.316 460.284C184.322 460.036 184.322 459.784 184.316 459.535C184.316 459.465 184.303 459.395 184.303 459.325C184.36 459.763 184.411 460.201 184.474 460.64L184.468 460.627Z" fill="#CCCCCC"/>
<path d="M98.822 227C98.1589 227 97.523 226.737 97.0542 226.268C96.5854 225.799 96.322 225.163 96.322 224.5V207.5C96.322 206.837 96.5854 206.201 97.0542 205.732C97.523 205.263 98.1589 205 98.822 205C99.485 205 100.121 205.263 100.59 205.732C101.059 206.201 101.322 206.837 101.322 207.5V224.5C101.322 225.163 101.059 225.799 100.59 226.268C100.121 226.737 99.485 227 98.822 227Z" fill="#E6E6E6"/>
<path d="M165.322 162C165.322 161.337 165.585 160.701 166.054 160.232C166.523 159.763 167.159 159.5 167.822 159.5H184.822C185.485 159.5 186.121 159.763 186.59 160.232C187.059 160.701 187.322 161.337 187.322 162C187.322 162.663 187.059 163.299 186.59 163.768C186.121 164.237 185.485 164.5 184.822 164.5H167.822C167.159 164.5 166.523 164.237 166.054 163.768C165.585 163.299 165.322 162.663 165.322 162Z" fill="white"/>
<path d="M99.322 289C98.6589 289 98.023 288.737 97.5542 288.268C97.0854 287.799 96.822 287.163 96.822 286.5V269.5C96.822 268.837 97.0854 268.201 97.5542 267.732C98.023 267.263 98.6589 267 99.322 267C99.985 267 100.621 267.263 101.09 267.732C101.559 268.201 101.822 268.837 101.822 269.5V286.5C101.822 287.163 101.559 287.799 101.09 288.268C100.621 288.737 99.985 289 99.322 289Z" fill="#E6E6E6"/>
<path d="M194.321 164.5C195.702 164.5 196.821 163.381 196.821 162C196.821 160.619 195.702 159.5 194.321 159.5C192.94 159.5 191.821 160.619 191.821 162C191.821 163.381 192.94 164.5 194.321 164.5Z" fill="white"/>
<path d="M859.941 488.613L2.19096 488.92C2.03172 488.925 1.87317 488.897 1.7247 488.84C1.57623 488.782 1.44085 488.695 1.32658 488.584C1.21232 488.473 1.12148 488.34 1.05945 488.193C0.997419 488.047 0.965454 487.889 0.965454 487.73C0.965454 487.57 0.997419 487.413 1.05945 487.266C1.12148 487.119 1.21232 486.986 1.32658 486.875C1.44085 486.764 1.57623 486.677 1.7247 486.62C1.87317 486.562 2.03172 486.534 2.19096 486.539L859.941 486.232C860.1 486.227 860.259 486.255 860.407 486.313C860.556 486.37 860.691 486.457 860.805 486.568C860.92 486.679 861.01 486.812 861.072 486.959C861.134 487.106 861.166 487.263 861.166 487.423C861.166 487.582 861.134 487.74 861.072 487.886C861.01 488.033 860.92 488.166 860.805 488.277C860.691 488.388 860.556 488.475 860.407 488.533C860.259 488.59 860.1 488.618 859.941 488.613Z" fill="#CACACA"/>
<path opacity="0.2" d="M324.841 267.973L322.108 285.031L340.608 292.662L324.841 267.973Z" fill="black"/>
<path opacity="0.2" d="M313.128 300.771C317.949 306.353 324.488 310.175 331.717 311.636C338.947 313.098 346.457 312.115 353.067 308.844L357.009 306.893L313.128 300.771Z" fill="black"/>
</svg>
